<?xml version="1.0" standalone="no"?>
<!DOCTYPE svg PUBLIC "-//W3C//DTD SVG 20010904//EN"
 "http://www.w3.org/TR/2001/REC-SVG-20010904/DTD/svg10.dtd">
<svg version="1.0" xmlns="http://www.w3.org/2000/svg"
 width="260.000000pt" height="260.000000pt" viewBox="0 0 260.000000 260.000000"
 preserveAspectRatio="xMidYMid meet">
<metadata>
Created by potrace 1.11, written by Peter Selinger 2001-2013
</metadata>
<g transform="translate(0.000000,260.000000) scale(0.100000,-0.100000)"
fill="#000000" stroke="none">
<path d="M1228 2595 c-2 -2 -32 -5 -68 -9 -36 -3 -76 -8 -90 -11 -14 -2 -38
-7 -55 -11 -16 -3 -66 -17 -110 -32 -44 -14 -82 -27 -85 -27 -3 0 -36 -15 -73
-33 -288 -135 -523 -385 -649 -689 -6 -15 -12 -30 -13 -33 0 -3 -8 -27 -18
-55 -66 -196 -79 -443 -35 -655 6 -30 11 -61 11 -67 0 -7 5 -13 10 -13 6 0 8
-3 4 -6 -3 -4 0 -22 8 -40 8 -19 14 -37 14 -40 -2 -17 89 -214 104 -225 5 -3
8 -9 7 -13 0 -4 24 -42 54 -84 96 -137 226 -259 380 -357 101 -64 306 -147
401 -161 11 -2 31 -5 45 -8 89 -20 269 -27 365 -14 89 12 128 18 150 22 29 6
157 46 180 56 139 60 253 126 345 199 52 40 200 189 200 199 0 4 11 19 24 33
25 27 136 207 136 220 0 5 11 32 24 61 126 271 133 666 19 953 -110 276 -279
483 -521 640 -153 98 -351 169 -534 191 -55 6 -226 13 -230 9z m257 -90 c17
-3 37 -8 45 -10 8 -2 31 -7 50 -10 58 -10 175 -52 260 -94 233 -115 433 -315
549 -548 44 -88 87 -208 97 -269 3 -22 8 -43 11 -47 15 -25 23 -306 10 -392
-19 -135 -59 -261 -123 -388 -165 -329 -493 -576 -854 -643 -158 -29 -365 -26
-495 8 -22 5 -49 12 -60 15 -38 8 -50 11 -50 13 0 1 -7 3 -15 5 -44 12 -90 31
-90 37 0 5 -6 8 -14 8 -19 0 -147 72 -222 125 -89 64 -219 196 -280 286 -45
65 -124 206 -131 234 -2 6 -16 48 -32 95 -16 47 -32 103 -35 125 -3 22 -9 60
-13 85 -9 58 -9 273 0 325 55 328 183 556 438 781 68 59 224 149 336 193 60
23 187 57 253 66 25 4 46 8 47 9 6 5 289 -3 318 -9z"/>
<path d="M1217 2004 c-1 -2 -17 -6 -35 -9 -131 -23 -274 -133 -335 -259 -89
-181 -66 -327 97 -621 45 -82 214 -349 243 -385 7 -8 26 -33 42 -56 50 -71 61
-67 147 54 158 222 325 515 370 647 20 60 28 205 13 260 -9 38 -54 137 -72
160 -80 104 -194 179 -307 202 -27 6 -159 11 -163 7z m170 -88 c49 -10 138
-64 186 -111 72 -72 112 -163 121 -280 5 -61 -46 -201 -131 -357 -51 -94 -216
-356 -232 -368 -4 -3 -14 -17 -24 -32 -10 -16 -21 -28 -26 -28 -4 0 -30 33
-56 73 -26 39 -52 73 -57 75 -4 2 -8 8 -8 13 0 6 -19 40 -43 77 -112 173 -201
348 -231 452 -14 51 -15 133 -2 188 12 53 58 135 100 180 100 107 250 151 403
118z"/>
<path d="M1201 1749 c-34 -10 -138 -105 -127 -116 3 -3 1 -12 -5 -19 -17 -20
-12 -129 7 -170 23 -48 75 -98 121 -115 50 -19 129 -17 175 5 44 21 101 81
114 121 50 147 -40 290 -188 300 -35 2 -78 0 -97 -6z m126 -55 c7 -1 28 -12
47 -23 38 -24 72 -94 68 -140 -1 -14 -2 -34 -3 -43 0 -10 -4 -18 -10 -18 -5 0
-9 -6 -9 -14 0 -22 -56 -64 -102 -77 -87 -23 -173 28 -198 116 -14 50 -6 91
26 142 24 38 129 80 159 64 6 -3 16 -6 22 -7z"/>
</g>
</svg>
